<?xml version="1.0" encoding="UTF-8"?>
<svg version="1.1" xmlns="http://www.w3.org/2000/svg" width="260" height="80">
<path d="M0 0 C5.52317886 5.97698714 7.50307093 12.1286237 7.515625 20.17578125 C5.83620917 28.87399706 1.24618974 34.54501936 -4.95703125 40.609375 C-5.71874634 41.37113037 -6.48046143 42.13288574 -7.26525879 42.91772461 C-8.86635432 44.51348944 -10.473523 46.10318189 -12.08642578 47.68701172 C-14.55755159 50.11602997 -17.00640732 52.56595315 -19.453125 55.01953125 C-21.0156638 56.57158536 -22.57942381 58.12241118 -24.14453125 59.671875 C-24.87692017 60.4040625 -25.60930908 61.13625 -26.3638916 61.890625 C-27.05140503 62.56222656 -27.73891846 63.23382813 -28.44726562 63.92578125 C-29.0480896 64.51818604 -29.64891357 65.11059082 -30.26794434 65.72094727 C-32.26177391 67.27369068 -33.5349562 67.88369415 -36.05078125 68.109375 C-37.53578125 67.119375 -37.53578125 67.119375 -39.05078125 66.109375 C-39.53680129 63.11775354 -39.44303114 61.67639321 -37.70556641 59.16479492 C-37.08987793 58.56256104 -36.47418945 57.96032715 -35.83984375 57.33984375 C-35.17210938 56.67919922 -34.504375 56.01855469 -33.81640625 55.33789062 C-33.11 54.66435547 -32.40359375 53.99082031 -31.67578125 53.296875 C-30.97710937 52.60400391 -30.2784375 51.91113281 -29.55859375 51.19726562 C-24.34538562 46.109375 -24.34538562 46.109375 -22.05078125 46.109375 C-22.05078125 45.449375 -22.05078125 44.789375 -22.05078125 44.109375 C-21.39078125 44.109375 -20.73078125 44.109375 -20.05078125 44.109375 C-19.39078125 42.789375 -18.73078125 41.469375 -18.05078125 40.109375 C-21.51259889 41.58461725 -23.63227872 43.51629305 -26.203125 46.2421875 C-26.97978516 47.04785156 -27.75644531 47.85351562 -28.55664062 48.68359375 C-30.17978629 50.38626704 -31.79697834 52.0946355 -33.40820312 53.80859375 C-34.18615234 54.61167969 -34.96410156 55.41476563 -35.765625 56.2421875 C-36.81931274 57.35424561 -36.81931274 57.35424561 -37.89428711 58.48876953 C-40.05078125 60.109375 -40.05078125 60.109375 -42.69360352 60.47607422 C-45.05078125 60.109375 -45.05078125 60.109375 -47.05078125 58.109375 C-46.69722689 55.84662712 -46.07533699 54.15848648 -45.05078125 52.109375 C-44.39078125 52.109375 -43.73078125 52.109375 -43.05078125 52.109375 C-42.72078125 51.119375 -42.39078125 50.129375 -42.05078125 49.109375 C-41.39078125 49.109375 -40.73078125 49.109375 -40.05078125 49.109375 C-39.72078125 48.119375 -39.39078125 47.129375 -39.05078125 46.109375 C-38.39078125 46.109375 -37.73078125 46.109375 -37.05078125 46.109375 C-37.05078125 45.449375 -37.05078125 44.789375 -37.05078125 44.109375 C-35.40625 42.48828125 -35.40625 42.48828125 -33.23828125 40.671875 C-29.4793989 37.56344311 -29.4793989 37.56344311 -26.05078125 34.109375 C-26.05078125 33.449375 -26.05078125 32.789375 -26.05078125 32.109375 C-26.71078125 32.109375 -27.37078125 32.109375 -28.05078125 32.109375 C-28.38078125 33.099375 -28.71078125 34.089375 -29.05078125 35.109375 C-29.71078125 35.109375 -30.37078125 35.109375 -31.05078125 35.109375 C-31.38078125 36.099375 -31.71078125 37.089375 -32.05078125 38.109375 C-32.71078125 38.109375 -33.37078125 38.109375 -34.05078125 38.109375 C-34.05078125 38.769375 -34.05078125 39.429375 -34.05078125 40.109375 C-35.71293393 41.44833132 -37.38041732 42.78067642 -39.05078125 44.109375 C-39.71078125 44.934375 -40.37078125 45.759375 -41.05078125 46.609375 C-43.20540456 49.30265414 -45.13348405 51.25938166 -48.05078125 53.109375 C-50.86328125 52.859375 -50.86328125 52.859375 -53.05078125 52.109375 C-53.82958984 49.92260742 -53.82958984 49.92260742 -54.05078125 47.109375 C-52.25244141 44.64575195 -52.25244141 44.64575195 -49.58984375 42.09765625 C-49.12468353 41.64335739 -48.65952332 41.18905853 -48.18026733 40.72099304 C-46.69227316 39.27317156 -45.18515287 37.84736594 -43.67578125 36.421875 C-42.17806299 34.98155807 -40.68452368 33.5370607 -39.19271851 32.09062195 C-37.83812166 30.78139835 -36.47324095 29.48284021 -35.10791016 28.18481445 C-33.00623592 26.28030207 -33.00623592 26.28030207 -32.05078125 24.109375 C-36.07444356 27.43326995 -39.89104159 30.90858684 -43.5234375 34.65625 C-44.13493652 35.28450684 -44.74643555 35.91276367 -45.37646484 36.56005859 C-46.60568041 37.83053815 -47.82629217 39.10940587 -49.03759766 40.39697266 C-51.58599321 43.02529549 -53.38282919 44.86157131 -56.8515625 46.1484375 C-59.05078125 46.109375 -59.05078125 46.109375 -61.05078125 44.109375 C-61.48828125 41.82421875 -61.48828125 41.82421875 -61.05078125 39.109375 C-58.92578125 36.42578125 -58.92578125 36.42578125 -56.05078125 33.671875 C-55.5503833 33.18960449 -55.04998535 32.70733398 -54.53442383 32.21044922 C-51.14234162 28.99141583 -47.63108885 26.06125224 -43.8046875 23.37890625 C-41.78306447 21.97120394 -41.78306447 21.97120394 -39.17578125 19.421875 C-35.08184773 16.3923642 -30.95164989 15.30069287 -26.05078125 14.109375 C-29.31764704 12.47594211 -32.01033199 13.84108578 -35.37890625 14.8828125 C-39.17398178 16.6249963 -41.53858553 19.1582067 -44.26171875 22.26953125 C-47.05408155 25.14115326 -49.20801715 26.02509859 -53.17578125 26.421875 C-54.12453125 26.31875 -55.07328125 26.215625 -56.05078125 26.109375 C-56.71078125 25.119375 -57.37078125 24.129375 -58.05078125 23.109375 C-57.39078125 23.109375 -56.73078125 23.109375 -56.05078125 23.109375 C-56.05078125 22.449375 -56.05078125 21.789375 -56.05078125 21.109375 C-54.38862857 19.77041868 -52.72114518 18.43807358 -51.05078125 17.109375 C-50.15359375 15.9646875 -50.15359375 15.9646875 -49.23828125 14.796875 C-46.80654068 11.80930802 -44.12715515 9.49883201 -41.19921875 7.01171875 C-38.99028013 5.05580401 -36.9660634 2.98955464 -34.92578125 0.859375 C-24.97799735 -9.16597447 -10.59999682 -9.21076923 0 0 Z " fill="#EF4422" transform="translate(92.05078125,8.890625)"/>
<path d="M0 0 C47.85 0 95.7 0 145 0 C145 4.29 145 8.58 145 13 C97.15 13 49.3 13 0 13 C0 8.71 0 4.42 0 0 Z " fill="#DADADA" transform="translate(100,49)"/>
<path d="M0 0 C4.29 0 8.58 0 13 0 C13.495 5.94 13.495 5.94 14 12 C14.66 11.67 15.32 11.34 16 11 C18.05859375 10.796875 18.05859375 10.796875 20.4375 10.75 C21.21996094 10.72421875 22.00242188 10.6984375 22.80859375 10.671875 C25.51738351 11.07746919 26.3216094 11.88533049 28 14 C29.11823815 16.23647631 29.19396061 17.64891529 29.31640625 20.1328125 C29.35830078 20.93847656 29.40019531 21.74414062 29.44335938 22.57421875 C29.48267578 23.41597656 29.52199219 24.25773437 29.5625 25.125 C29.60568359 25.97449219 29.64886719 26.82398437 29.69335938 27.69921875 C29.79954236 29.79928223 29.90028497 31.89961948 30 34 C30.99 34.33 31.98 34.66 33 35 C33 36.32 33 37.64 33 39 C28.71 39 24.42 39 20 39 C19.67 31.41 19.34 23.82 19 16 C17.68 16.33 16.36 16.66 15 17 C13.81318274 20.56045177 13.90310168 23.43808337 13.9375 27.1875 C13.94652344 28.45980469 13.95554688 29.73210938 13.96484375 31.04296875 C13.97644531 32.01878906 13.98804688 32.99460938 14 34 C14.99 34.33 15.98 34.66 17 35 C17 36.32 17 37.64 17 39 C12.43783535 39.14532035 7.87626638 39.23408477 3.3125 39.3125 C1.37213867 39.3753418 1.37213867 39.3753418 -0.60742188 39.43945312 C-2.47817383 39.46362305 -2.47817383 39.46362305 -4.38671875 39.48828125 C-5.53358154 39.51446533 -6.68044434 39.54064941 -7.86206055 39.56762695 C-12.01048187 38.8172123 -13.46253507 37.30759959 -16 34 C-16.56762695 31.68823242 -16.56762695 31.68823242 -16.48828125 29.35546875 C-16.47216797 28.51435547 -16.45605469 27.67324219 -16.43945312 26.80664062 C-16.39755859 25.94232422 -16.35566406 25.07800781 -16.3125 24.1875 C-16.28994141 23.30384766 -16.26738281 22.42019531 -16.24414062 21.50976562 C-16.18547428 19.3391109 -16.09579979 17.1693331 -16 15 C-16.99 15 -17.98 15 -19 15 C-19 14.01 -19 13.02 -19 12 C-17.35 11.67 -15.7 11.34 -14 11 C-13.34 9.02 -12.68 7.04 -12 5 C-10.02 5 -8.04 5 -6 5 C-6 6.98 -6 8.96 -6 11 C-4.02 11 -2.04 11 0 11 C0 12.32 0 13.64 0 15 C-1.98 15 -3.96 15 -6 15 C-5.67 20.94 -5.34 26.88 -5 33 C-2.36 33.33 0.28 33.66 3 34 C3.07408587 29.90666095 3.1285704 25.81358067 3.16479492 21.71972656 C3.17989358 20.32675378 3.20037444 18.93382862 3.22631836 17.54101562 C3.26265122 15.54057115 3.27811192 13.53978173 3.29296875 11.5390625 C3.3086792 10.33459473 3.32438965 9.13012695 3.34057617 7.88916016 C3.22818604 6.9357373 3.1157959 5.98231445 3 5 C2.01 4.34 1.02 3.68 0 3 C0 2.01 0 1.02 0 0 Z " fill="#F15824" transform="translate(180,3)"/>
<path d="M0 0 C2.97 0 5.94 0 9 0 C9.45890625 1.31613281 9.9178125 2.63226563 10.390625 3.98828125 C11.01029624 5.76306289 11.63009623 7.53779957 12.25 9.3125 C12.568479 10.22499512 12.88695801 11.13749023 13.21508789 12.07763672 C15.2079085 17.77502727 17.24190337 23.45341731 19.37109375 29.1015625 C20 31 20 31 20 33 C20.99 33 21.98 33 23 33 C23.33 31.35 23.66 29.7 24 28 C25.32 27.67 26.64 27.34 28 27 C28.3403125 28.2065625 28.3403125 28.2065625 28.6875 29.4375 C29.74834038 32.23439284 29.74834038 32.23439284 32.5 32.875 C34.99906947 33.20518243 34.99906947 33.20518243 37 32 C37 31.01 37 30.02 37 29 C36.15695313 28.60167969 35.31390625 28.20335938 34.4453125 27.79296875 C33.34960938 27.26316406 32.25390625 26.73335937 31.125 26.1875 C30.03445312 25.66542969 28.94390625 25.14335937 27.8203125 24.60546875 C25 23 25 23 23 20 C22.7795646 17.19651384 23.16751637 14.68182645 24 12 C26.40210478 9.4377549 28.21759054 9.05948142 31.671875 8.796875 C35.71823198 8.73264711 39.14051132 8.71350377 43 10 C43.38133299 11.9914056 43.71325582 13.99279077 44 16 C43 17 43 17 40.4375 17.0625 C39.633125 17.041875 38.82875 17.02125 38 17 C37.505 15.515 37.505 15.515 37 14 C34.525 13.505 34.525 13.505 32 13 C32 14.32 32 15.64 32 17 C32.68707031 17.25394531 33.37414062 17.50789063 34.08203125 17.76953125 C34.98308594 18.11371094 35.88414062 18.45789063 36.8125 18.8125 C37.70582031 19.14894531 38.59914062 19.48539063 39.51953125 19.83203125 C41.98003507 20.99059919 43.37085983 21.84007545 45 24 C45.46068067 27.17357798 45.69271255 28.98259109 45 32 C42.84514831 34.79548327 42.11329215 35.7368929 39 37 C35.29009503 37.41221166 31.71631651 37.2526197 28 37 C26.68 37 25.36 37 24 37 C18 37 12 37 6 37 C6 35.68 6 34.36 6 33 C7.32 33 8.64 33 10 33 C9.34 30.36 8.68 27.72 8 25 C4.04 25 0.08 25 -4 25 C-4.66 27.64 -5.32 30.28 -6 33 C-4.68 33 -3.36 33 -2 33 C-2 34.32 -2 35.64 -2 37 C-6.29 37 -10.58 37 -15 37 C-15 35.68 -15 34.36 -15 33 C-13.515 32.505 -13.515 32.505 -12 32 C-10.88023033 29.6309867 -9.95626545 27.36150951 -9.08203125 24.90234375 C-8.81992355 24.19348526 -8.55781586 23.48462677 -8.2877655 22.75428772 C-7.45181036 20.48584201 -6.63203996 18.21192125 -5.8125 15.9375 C-5.24910181 14.40000365 -4.68466159 12.8628887 -4.11914062 11.32617188 C-2.73395659 7.55510318 -1.36326091 3.77904641 0 0 Z M1 8 C0.49487756 9.60256108 -0.00391627 11.20711792 -0.5 12.8125 C-0.7784375 13.70582031 -1.056875 14.59914063 -1.34375 15.51953125 C-2.12788351 18.05573395 -2.12788351 18.05573395 -2 21 C0.64 21 3.28 21 6 21 C5.71517632 19.58194169 5.42181856 18.16559621 5.125 16.75 C4.96257812 15.96109375 4.80015625 15.1721875 4.6328125 14.359375 C4.00849925 12.03168856 3.15161458 10.10968048 2 8 C1.67 8 1.34 8 1 8 Z " fill="#F15824" transform="translate(115,5)"/>
<path d="M0 0 C0.44988281 0.34933594 0.89976563 0.69867188 1.36328125 1.05859375 C0.04843714 3.96642208 -1.37047186 6.06500933 -3.63671875 8.30859375 C-4.15234375 8.829375 -4.66796875 9.35015625 -5.19921875 9.88671875 C-6.63671875 11.05859375 -6.63671875 11.05859375 -8.63671875 11.05859375 C-8.96671875 12.04859375 -9.29671875 13.03859375 -9.63671875 14.05859375 C-10.29671875 14.05859375 -10.95671875 14.05859375 -11.63671875 14.05859375 C-11.96671875 15.04859375 -12.29671875 16.03859375 -12.63671875 17.05859375 C-13.29671875 17.05859375 -13.95671875 17.05859375 -14.63671875 17.05859375 C-14.96671875 18.04859375 -15.29671875 19.03859375 -15.63671875 20.05859375 C-16.29671875 20.05859375 -16.95671875 20.05859375 -17.63671875 20.05859375 C-17.63671875 20.71859375 -17.63671875 21.37859375 -17.63671875 22.05859375 C-18.13171875 22.53296875 -18.62671875 23.00734375 -19.13671875 23.49609375 C-20.98298466 25.05829317 -20.98298466 25.05829317 -20.63671875 28.05859375 C-18.98671875 28.71859375 -17.33671875 29.37859375 -15.63671875 30.05859375 C-17.0809651 33.29720678 -18.89444122 35.67828538 -21.26171875 38.30859375 C-21.89335937 39.015 -22.525 39.72140625 -23.17578125 40.44921875 C-23.65789063 40.9803125 -24.14 41.51140625 -24.63671875 42.05859375 C-30.68220454 39.51027239 -35.15364436 33.90115299 -38.13671875 28.18359375 C-39.34091031 20.65739649 -39.58254278 13.80467999 -35.63671875 7.05859375 C-26.72664071 -5.02401208 -12.87288359 -9.10646875 0 0 Z " fill="#EE3623" transform="translate(53.63671875,6.94140625)"/>
<path d="M0 0 C3.96 0 7.92 0 12 0 C12.06058594 1.25296875 12.12117187 2.5059375 12.18359375 3.796875 C12.26802256 5.44792724 12.35266939 7.09896835 12.4375 8.75 C12.47681641 9.575 12.51613281 10.4 12.55664062 11.25 C12.61948242 12.44882812 12.61948242 12.44882812 12.68359375 13.671875 C12.72025146 14.4050293 12.75690918 15.13818359 12.79467773 15.89355469 C13.00114785 18.01177605 13.43132086 19.9519456 14 22 C15.32 21.67 16.64 21.34 18 21 C18.33 15.39 18.66 9.78 19 4 C18.01 4 17.02 4 16 4 C16 2.68 16 1.36 16 0 C19.96 0 23.92 0 28 0 C28.33 7.59 28.66 15.18 29 23 C29.99 23.33 30.98 23.66 32 24 C32 25.32 32 26.64 32 28 C30.20866022 28.05391993 28.41686101 28.09275571 26.625 28.125 C25.62726563 28.14820312 24.62953125 28.17140625 23.6015625 28.1953125 C21 28 21 28 19 26 C18.01 26.66 17.02 27.32 16 28 C9.02766798 28.55335968 9.02766798 28.55335968 5.5625 26.6875 C3.01556496 23.93681016 2.87696479 21.34796417 2.90234375 17.76953125 C2.90556641 16.96708984 2.90878906 16.16464844 2.91210938 15.33789062 C2.92048828 14.50451172 2.92886719 13.67113281 2.9375 12.8125 C2.94201172 11.96751953 2.94652344 11.12253906 2.95117188 10.25195312 C2.96294597 8.16793845 2.9808811 6.08396023 3 4 C2.01 4 1.02 4 0 4 C0 2.68 0 1.36 0 0 Z " fill="#F15825" transform="translate(213,14)"/>
<path d="M0 0 C1.134375 0.020625 2.26875 0.04125 3.4375 0.0625 C3.7675 1.0525 4.0975 2.0425 4.4375 3.0625 C5.4275 3.7225 6.4175 4.3825 7.4375 5.0625 C3.8075 5.0625 0.1775 5.0625 -3.5625 5.0625 C-3.8925 3.7425 -4.2225 2.4225 -4.5625 1.0625 C-3.5625 0.0625 -3.5625 0.0625 0 0 Z " fill="#676767" transform="translate(165.5625,52.9375)"/>
<path d="M0 0 C1.32 0 2.64 0 4 0 C4 1.32 4 2.64 4 4 C4.66 4 5.32 4 6 4 C5.67 2.68 5.34 1.36 5 0 C6.65 0.33 8.3 0.66 10 1 C10 2.32 10 3.64 10 5 C7.36 5 4.72 5 2 5 C2.33 3.68 2.66 2.36 3 1 C2.01 1.33 1.02 1.66 0 2 C0 1.34 0 0.68 0 0 Z " fill="#303030" transform="translate(193,53)"/>
<path d="M0 0 C1.32 0 2.64 0 4 0 C4 1.65 4 3.3 4 5 C2.68 5 1.36 5 0 5 C0 3.35 0 1.7 0 0 Z " fill="#555555" transform="translate(217,53)"/>
<path d="M0 0 C1.32 0.33 2.64 0.66 4 1 C4 1.66 4 2.32 4 3 C4.99 3.33 5.98 3.66 7 4 C6.34 4.66 5.68 5.32 5 6 C5 5.34 5 4.68 5 4 C4.34 4 3.68 4 3 4 C2.67 4.66 2.34 5.32 2 6 C2 5.34 2 4.68 2 4 C1.34 4 0.68 4 0 4 C0 2.68 0 1.36 0 0 Z " fill="#444444" transform="translate(137,54)"/>
<path d="M0 0 C0.99 0 1.98 0 3 0 C3 1.65 3 3.3 3 5 C1.68 4.67 0.36 4.34 -1 4 C-0.67 2.68 -0.34 1.36 0 0 Z " fill="#585858" transform="translate(162,53)"/>
<path d="M0 0 C1.32 0 2.64 0 4 0 C4.33 1.65 4.66 3.3 5 5 C3.35 5 1.7 5 0 5 C0 3.33333333 0 1.66666667 0 0 Z " fill="#393939" transform="translate(184,53)"/>
</svg>
